<svg width="214" height="24" viewBox="0 0 214 24" fill="none" xmlns="http://www.w3.org/2000/svg">
<g clip-path="url(#clip0_3559_279)">
<path d="M161.738 -0.0001041C170.439 -0.106762 175.139 7.44422 173.124 15.491C171.622 21.4836 166.3 24.6142 160.237 23.8814C146.214 22.1887 146.753 0.183584 161.738 -0.0001041ZM160.9 2.96261C150.597 3.87118 151.066 20.0042 160.781 21.0312C165.367 21.5171 169.088 18.985 170.061 14.4777C171.446 8.06244 167.946 2.34242 160.9 2.96261Z" fill="#FFFCF1"/>
<path d="M135.103 8.94561e-05C140.699 -0.0611401 145.447 3.30253 146.582 8.84282C148.352 17.4663 142.774 24.9699 133.601 23.8836C119.555 22.2185 120.052 0.167977 135.103 8.94561e-05ZM134.267 2.96281C123.86 3.87928 124.443 20.0992 134.148 21.0314C138.638 21.462 142.314 19.0978 143.354 14.6794C144.87 8.23842 141.385 2.33471 134.269 2.96083L134.267 2.96281Z" fill="#FFFCF1"/>
<path d="M34.5689 0.533203C39.4532 0.96181 42.2828 5.41971 40.3191 9.94872C39.5583 11.7046 38.8747 11.8547 37.4262 12.791C37.337 12.8482 37.2597 12.7811 37.3073 12.9964C41.1276 13.8101 40.2815 18.7776 40.7551 21.7087C40.8581 22.3507 41.1276 22.8899 41.2049 23.5239H38.0959C37.3667 21.9912 37.5035 20.1504 37.3053 18.4932C37.127 16.9881 36.9764 14.8807 35.2862 14.3158C34.5649 14.0748 32.7281 14.0096 31.5134 14.0096C27.493 14.0096 25.892 13.9148 25.892 11.3353V23.5239H22.8286V0.533203H34.5689ZM25.892 11.3373C28.1667 11.2385 30.5485 11.4676 32.8093 11.3412C35.5933 11.1852 37.9414 10.162 37.6659 6.96428C37.4836 4.84495 35.6488 3.39716 33.5484 3.39716H25.892V11.3373Z" fill="#FFFCF1"/>
<path d="M115.114 0.533203C119.998 0.96181 122.828 5.41971 120.864 9.94872C120.103 11.7046 119.42 11.8547 117.971 12.791C117.882 12.8482 117.805 12.7811 117.852 12.9964C121.673 13.8101 120.827 18.7776 121.3 21.7087C121.403 22.3507 121.673 22.8899 121.75 23.5239H118.641C117.912 21.9912 118.049 20.1504 117.85 18.4932C117.672 16.9881 117.522 14.8807 115.831 14.3158C115.11 14.0748 113.273 14.0096 112.059 14.0096C108.038 14.0096 106.437 13.9148 106.437 11.3353V23.5239H103.374V0.533203H115.114ZM106.437 11.3373C108.712 11.2385 111.094 11.4676 113.354 11.3412C116.138 11.1852 118.487 10.162 118.211 6.96428C118.029 4.84495 116.194 3.39716 114.094 3.39716H106.437V11.3373Z" fill="#FFFCF1"/>
<path d="M213.725 7.45808H210.384C210.142 4.50524 207.982 3.00216 205.145 2.83624C202.068 2.65651 198.725 3.75469 199.058 7.41463C199.212 9.10536 200.847 9.71173 202.292 10.0159C206.363 10.8692 213.033 10.0752 213.899 15.5483C214.65 20.2906 211.127 23.3323 206.706 23.8814C201.158 24.5707 195.071 22.2381 195.164 15.8604H198.459L198.584 16.0124C198.64 18.9771 200.794 20.8278 203.657 21.1221C206.566 21.4204 210.64 20.6205 210.76 17.0178C210.838 14.6832 209.151 13.899 207.156 13.4882C203.27 12.6863 196.894 13.3677 195.935 8.21654C194.114 -1.57031 210.806 -2.62504 213.328 5.13136C213.584 5.91945 213.612 6.64827 213.727 7.46006L213.725 7.45808Z" fill="#FFFCF1"/>
<path d="M87.4211 0.533203V3.39519H73.6854V10.2292H86.3986V13.0912H73.6854V20.5711H87.6053V23.5259H70.6221V0.533203H87.4211Z" fill="#FFFCF1"/>
<path d="M48.8139 0.533203L48.81 13.9721C48.5306 23.1309 62.3019 23.4726 62.5515 14.4343L62.5476 0.533203H65.6109V14.7069C65.4108 27.1285 46.0517 26.9271 45.7466 14.7108L45.7505 0.533203H48.8139Z" fill="#FFFCF1"/>
<path d="M19.4879 0.533203V3.48802H11.3222V23.5259H8.25881V3.48802H0V0.533203H19.4879Z" fill="#FFFCF1"/>
<path d="M193.494 0.533203V3.48802H185.235V23.5259H182.172V3.48802H174.006V0.533203H193.494Z" fill="#FFFCF1"/>
</g>
<defs>
<clipPath id="clip0_3559_279">
<rect width="214" height="24" fill="white"/>
</clipPath>
</defs>
</svg>
