<svg width="226" height="90" viewBox="0 0 226 90" fill="none" xmlns="http://www.w3.org/2000/svg">
<g clip-path="url(#clip0_3559_454)">
<path d="M9.02954 56.4268H17.9963V58.2704H11.2268V62.4462H16.7094V64.2919H11.2268V70.3133H9.02954V56.4268Z" fill="#EAE2C7"/>
<path d="M19.9131 63.3598C19.9131 58.8165 21.8529 56.1558 24.9604 56.1558C28.0679 56.1558 29.968 58.8165 29.968 63.3598C29.968 67.9031 28.047 70.5843 24.9604 70.5843C21.8738 70.5843 19.9131 67.9031 19.9131 63.3598ZM24.9604 68.7387C26.9798 68.7387 27.7519 66.622 27.7519 63.3577C27.7519 60.0934 26.9798 57.9973 24.9604 57.9973C22.9411 57.9973 22.1291 60.1324 22.1291 63.3577C22.1291 66.583 22.8804 68.7387 24.9604 68.7387Z" fill="#EAE2C7"/>
<path d="M31.7866 63.3598C31.7866 58.8165 33.7265 56.1558 36.834 56.1558C39.9415 56.1558 41.8415 58.8165 41.8415 63.3598C41.8415 67.9031 39.9205 70.5843 36.834 70.5843C33.7474 70.5843 31.7866 67.9031 31.7866 63.3598ZM36.834 68.7387C38.8533 68.7387 39.6255 66.622 39.6255 63.3577C39.6255 60.0934 38.8533 57.9973 36.834 57.9973C34.8146 57.9973 34.0027 60.1324 34.0027 63.3577C34.0027 66.583 34.7539 68.7387 36.834 68.7387Z" fill="#EAE2C7"/>
<path d="M44.1936 56.4268H48.7262C51.7751 56.4268 53.6961 58.952 53.6961 63.3783C53.6961 67.8046 51.8755 70.3133 48.8078 70.3133H44.1957V56.4268H44.1936ZM48.5295 68.4677C50.825 68.4677 51.4779 66.08 51.4779 63.3783C51.4779 60.6765 50.8062 58.2704 48.5295 58.2704H46.3322V68.4677H48.5295Z" fill="#EAE2C7"/>
<path d="M67.4067 56.4268H76.3735V58.2704H69.604V62.4462H75.0866V64.2919H69.604V70.3133H67.4067V56.4268Z" fill="#EAE2C7"/>
<path d="M78.2903 63.3598C78.2903 58.8165 80.2301 56.1558 83.3376 56.1558C86.4451 56.1558 88.3452 58.8165 88.3452 63.3598C88.3452 67.9031 86.4242 70.5843 83.3376 70.5843C80.251 70.5843 78.2903 67.9031 78.2903 63.3598ZM83.3376 68.7387C85.357 68.7387 86.1291 66.622 86.1291 63.3577C86.1291 60.0934 85.357 57.9973 83.3376 57.9973C81.3183 57.9973 80.5063 60.1324 80.5063 63.3577C80.5063 66.583 81.2576 68.7387 83.3376 68.7387Z" fill="#EAE2C7"/>
<path d="M90.9357 56.4268H96.0039C98.5778 56.4268 100.022 57.8639 100.022 60.4281C100.022 62.1957 99.1303 63.4768 97.8036 63.8258V63.8648C100.555 64.4684 99.5446 69.9438 100.179 70.1778V70.3133H97.9019C97.3683 69.7303 98.4774 64.8749 95.7256 64.8749H93.112V70.3133H90.9336V56.4268H90.9357ZM95.5687 63.0292C97.0335 63.0292 97.8643 62.1937 97.8643 60.5615C97.8643 59.0649 97.1716 58.2704 95.5875 58.2704H93.1141V63.0292H95.5687Z" fill="#EAE2C7"/>
<path d="M114.168 56.4268H116.365V68.4677H122.858V70.3133H114.168V56.4268Z" fill="#EAE2C7"/>
<path d="M124.794 63.3598C124.794 58.8165 126.734 56.1558 129.841 56.1558C132.949 56.1558 134.849 58.8165 134.849 63.3598C134.849 67.9031 132.928 70.5843 129.841 70.5843C126.755 70.5843 124.794 67.9031 124.794 63.3598ZM129.843 68.7387C131.863 68.7387 132.635 66.622 132.635 63.3577C132.635 60.0934 131.863 57.9973 129.843 57.9973C127.824 57.9973 127.012 60.1324 127.012 63.3577C127.012 66.583 127.763 68.7387 129.843 68.7387Z" fill="#EAE2C7"/>
<path d="M137.182 56.4268H139.618L144.033 67.1065H144.073V56.4268H146.212V70.3133H143.776L139.302 59.6315H139.262L139.321 70.3133H137.182V56.4268Z" fill="#EAE2C7"/>
<path d="M148.681 63.4379C148.681 59.2231 150.443 56.1538 153.69 56.1538C156.243 56.1538 157.846 58.0385 158.144 60.7177H155.925C155.727 58.95 154.896 57.9995 153.667 57.9995C151.569 57.9995 150.897 60.7567 150.897 63.3599C150.897 65.9631 151.51 68.7408 153.59 68.7408C155.153 68.7408 156.066 67.2442 156.084 64.8381H153.688V63.0499H158.3V70.3134H156.796L156.459 68.3898H156.419C155.806 69.8864 154.777 70.5865 153.331 70.5865C150.303 70.5865 148.679 67.5378 148.679 63.44L148.681 63.4379Z" fill="#EAE2C7"/>
<path d="M161.266 56.4268H170.075V58.2704H163.463V62.2142H169.224V64.0599H163.463V68.4677H170.253V70.3133H161.266V56.4268Z" fill="#EAE2C7"/>
<path d="M171.953 56.4268H174.328L177.377 68.0612H177.395L180.405 56.4268H182.681L178.544 70.3133H176.19L171.953 56.4268Z" fill="#EAE2C7"/>
<path d="M184.855 68.4677H188.082V58.2704H184.855V56.4268H193.527V58.2704H190.282V68.4677H193.527V70.3133H184.855V68.4677Z" fill="#EAE2C7"/>
<path d="M199.974 58.2704H195.936V56.4268H206.189V58.2704H202.151V70.3133H199.972V58.2704H199.974Z" fill="#EAE2C7"/>
<path d="M211.848 64.7375L207.334 56.4248H209.69L212.917 63.0663H212.957L216.224 56.4248H218.54L214.026 64.7375V70.3114H211.848V64.7375Z" fill="#EAE2C7"/>
<path d="M7.26972 86.6593H0.816162V84.7171L7.26972 76.3101H9.40835V84.8547H11.3482V86.6613H9.40835V89.7306H7.26972V86.6613V86.6593ZM7.26972 84.8526V79.0077L2.77692 84.8526H7.26972Z" fill="#EAE2C7"/>
<path d="M13.4617 80.4058V78.6977C16.747 78.6772 17.5987 78.1147 17.7766 76.3101H19.48V87.924H22.7465V89.7306H13.4617V87.924H17.3204V79.7673C16.588 80.2909 15.3994 80.4079 13.4617 80.4079V80.4058Z" fill="#EAE2C7"/>
<path d="M28.6602 87.3389H31.1148V89.7286H28.6602V87.3389Z" fill="#EAE2C7"/>
<path d="M41.0693 83.8428C43.1074 82.5412 44.2374 81.8801 44.2374 80.133C44.2374 79.0449 43.7624 77.8418 42.1197 77.8418C40.2406 77.8418 39.5458 79.2214 39.5458 81.0466H37.3675C37.3675 78.1908 38.893 76.0352 42.1783 76.0352C44.5932 76.0352 46.4535 77.4907 46.4535 80.055C46.4535 82.6192 44.5534 83.9003 42.6136 85.2019C41.0295 86.2325 40.2573 86.8155 39.9016 87.8831V87.9221H46.3551V89.7288H37.0703C37.0703 87.3 38.4158 85.5714 41.0693 83.8448V83.8428Z" fill="#EAE2C7"/>
<path d="M54.7631 86.6593H48.3096V84.7171L54.7631 76.3101H56.9018V84.8547H58.8416V86.6613H56.9018V89.7306H54.7631V86.6613V86.6593ZM54.7631 84.8526V79.0077L50.2703 84.8526H54.7631Z" fill="#EAE2C7"/>
<path d="M65.5275 76.0352C69.1896 76.0352 70.4577 79.3754 70.4577 83.1037C70.4577 86.832 69.1917 89.9977 65.5275 89.9977C61.8634 89.9977 60.5576 86.8525 60.5576 83.1037C60.5576 79.3549 61.8446 76.0352 65.5275 76.0352ZM65.5275 88.1931C67.844 88.1931 68.2395 85.7644 68.2395 83.1242C68.2395 80.484 67.8419 77.8418 65.5275 77.8418C63.2131 77.8418 62.7758 80.4635 62.7758 83.1057C62.7758 85.748 63.211 88.1952 65.5275 88.1952V88.1931ZM64.4205 81.7836H66.5592V84.0953H64.4205V81.7836Z" fill="#EAE2C7"/>
<path d="M82.1322 82.9681C82.1322 87.3759 80.2907 89.9976 77.1623 89.9976C74.806 89.9976 73.2031 88.347 72.9457 86.3289H75.122C75.2413 87.3964 75.8147 88.2505 77.1811 88.2505C79.3993 88.2505 80.0124 85.9408 80.0124 83.5901V83.3766L79.9727 83.3582C79.3198 84.5222 78.1709 85.1628 76.7856 85.1628C74.3101 85.1628 72.5879 83.3192 72.5879 80.6975C72.5879 78.0758 74.3499 76.0371 77.1602 76.0371C80.8432 76.0371 82.1301 78.8908 82.1301 82.9701L82.1322 82.9681ZM77.1435 83.3972C78.7861 83.3972 79.8366 82.2516 79.8366 80.5414C79.8366 78.8313 78.9054 77.7842 77.2439 77.7842C75.5824 77.7842 74.7705 78.8723 74.7705 80.5804C74.7705 82.2885 75.6807 83.3972 77.1456 83.3972H77.1435Z" fill="#EAE2C7"/>
<path d="M86.2065 78.4846C86.2065 77.1235 87.1963 75.5693 89.2555 75.5693C91.3146 75.5693 92.3044 77.1235 92.3044 78.4846C92.3044 79.8458 91.2957 81.4163 89.2555 81.4163C87.2152 81.4163 86.2065 79.8622 86.2065 78.4846ZM89.2555 80.1722C90.2452 80.1722 90.9379 79.4926 90.9379 78.4846C90.9379 77.4766 90.2452 76.8135 89.2555 76.8135C88.2657 76.8135 87.573 77.4951 87.573 78.4846C87.573 79.4742 88.2657 80.1722 89.2555 80.1722Z" fill="#EAE2C7"/>
<path d="M96.615 75.8403H99.0508L103.466 86.5222H103.506V75.8403H105.645V89.7269H103.209L98.7348 79.0451H98.695L98.7536 89.7269H96.615V75.8403Z" fill="#EAE2C7"/>
<path d="M124.894 76.0352C128.556 76.0352 129.824 79.3754 129.824 83.1037C129.824 86.832 128.558 89.9977 124.894 89.9977C121.23 89.9977 119.924 86.8525 119.924 83.1037C119.924 79.3549 121.211 76.0352 124.894 76.0352ZM124.894 88.1931C127.211 88.1931 127.606 85.7644 127.606 83.1242C127.606 80.484 127.209 77.8418 124.894 77.8418C122.58 77.8418 122.142 80.4635 122.142 83.1057C122.142 85.748 122.578 88.1952 124.894 88.1952V88.1931ZM123.787 81.7836H125.926V84.0953H123.787V81.7836Z" fill="#EAE2C7"/>
<path d="M136.056 83.8428C138.095 82.5412 139.225 81.8801 139.225 80.133C139.225 79.0449 138.749 77.8418 137.107 77.8418C135.228 77.8418 134.533 79.2214 134.533 81.0466H132.355C132.355 78.1908 133.88 76.0352 137.165 76.0352C139.58 76.0352 141.441 77.4907 141.441 80.055C141.441 82.6192 139.54 83.9003 137.601 85.2019C136.017 86.2325 135.244 86.8155 134.889 87.8831V87.9221H141.342V89.7288H132.057C132.057 87.3 133.403 85.5714 136.056 83.8448V83.8428Z" fill="#EAE2C7"/>
<path d="M147.394 87.3389H149.848V89.7286H147.394V87.3389Z" fill="#EAE2C7"/>
<path d="M155.944 80.4058V78.6977C159.23 78.6772 160.081 78.1147 160.259 76.3101H161.963V87.924H165.229V89.7306H155.944V87.924H159.803V79.7673C159.071 80.2909 157.882 80.4079 155.944 80.4079V80.4058Z" fill="#EAE2C7"/>
<path d="M167.818 80.4058V78.6977C171.103 78.6772 171.955 78.1147 172.133 76.3101H173.836V87.924H177.102V89.7306H167.818V87.924H171.676V79.7673C170.944 80.2909 169.755 80.4079 167.818 80.4079V80.4058Z" fill="#EAE2C7"/>
<path d="M179.551 85.8052H181.727C181.846 87.0268 182.56 88.1929 184.28 88.1929C185.824 88.1929 186.835 87.1253 186.835 85.1442C186.835 83.163 185.904 82.4055 184.362 82.4055C183.372 82.4055 182.461 82.7955 181.886 83.6106H179.729L181.114 76.3101H188.438V78.1147H182.717L182.043 81.8244V81.8635C182.696 81.1449 183.646 80.6994 184.954 80.6994C187.39 80.6994 189.051 82.5841 189.051 85.1462C189.051 88.119 187.032 90.0016 184.399 90.0016C181.292 90.0016 179.649 88.0594 179.549 85.8073L179.551 85.8052Z" fill="#EAE2C7"/>
<path d="M198.374 78.1517V78.1127H191.445V76.3081H200.749V77.9197C196.967 80.4634 195.404 85.4543 195.404 89.7287H193.167C193.167 85.3003 195.306 80.2704 198.374 78.1517Z" fill="#EAE2C7"/>
<path d="M204.94 78.4846C204.94 77.1235 205.93 75.5693 207.989 75.5693C210.048 75.5693 211.038 77.1235 211.038 78.4846C211.038 79.8458 210.027 81.4163 207.989 81.4163C205.951 81.4163 204.94 79.8622 204.94 78.4846ZM207.989 80.1722C208.979 80.1722 209.672 79.4926 209.672 78.4846C209.672 77.4766 208.979 76.8135 207.989 76.8135C206.999 76.8135 206.307 77.4951 206.307 78.4846C206.307 79.4742 206.999 80.1722 207.989 80.1722Z" fill="#EAE2C7"/>
<path d="M214.499 75.8403H216.598L217.548 86.6002H217.588L218.973 79.2381H220.754L222.139 86.6002H222.158L223.127 75.8403H225.226L223.365 89.7269H221.346L219.86 81.2192H219.842L218.377 89.7269H216.357L214.497 75.8403H214.499Z" fill="#EAE2C7"/>
<path d="M214.832 0.211426C223.052 0.921768 227.816 8.30441 224.51 15.8082C223.229 18.7173 222.079 18.9657 219.641 20.5178C219.49 20.6143 219.36 20.5014 219.44 20.8586C225.868 22.2074 224.447 30.4338 225.245 35.2913C225.418 36.3547 225.872 37.2498 226 38.2989H220.766C219.54 35.7614 219.77 32.7106 219.438 29.9637C219.136 27.4693 218.883 23.9792 216.037 23.045C214.824 22.6468 211.417 22.9116 209.374 22.9116C202.607 22.9116 200.226 22.3819 200.226 18.1075V38.2989H195.072V0.211426H214.83H214.832ZM200.228 18.1075C204.055 17.9454 208.064 18.3231 211.871 18.1137C216.556 17.855 220.507 16.1613 220.045 10.8604C219.739 7.34975 216.65 4.95183 213.114 4.95183H200.228V18.1075Z" fill="#EAE2C7"/>
<path d="M32.8014 0V4.89438H19.0572V38.0875H13.9011V4.89438H0V0H32.8014Z" fill="#EAE2C7"/>
<path d="M136.937 41.3807C147.173 41.3807 155.471 33.2397 155.471 23.1972C155.471 13.1547 147.173 5.01367 136.937 5.01367C126.701 5.01367 118.403 13.1547 118.403 23.1972C118.403 33.2397 126.701 41.3807 136.937 41.3807Z" fill="#EAE2C7"/>
<path d="M78.2505 3.64014V42.7562H118.121V3.64014H78.2505ZM98.1845 41.3807C87.9476 41.3807 79.6504 33.2405 79.6504 23.1971C79.6504 13.1538 87.9497 5.0136 98.1845 5.0136C108.419 5.0136 116.719 13.1559 116.719 23.1971C116.719 33.2384 108.419 41.3807 98.1845 41.3807Z" fill="#EAE2C7"/>
</g>
<defs>
<clipPath id="clip0_3559_454">
<rect width="226" height="90" fill="white"/>
</clipPath>
</defs>
</svg>
