<svg width="24" height="24" viewBox="0 0 24 24" fill="none" xmlns="http://www.w3.org/2000/svg">
<path d="M12.5109 1.49297C7.43433 1.43063 1.41886 6.95156 1.49996 12C1.58527 17.3156 8.19839 22.8469 13.5 22.5C17.9765 22.2094 22.4015 16.8891 22.3968 12.4031C22.3921 7.55156 17.5968 1.73156 12.75 1.5C12.6703 1.49625 12.5906 1.49391 12.5109 1.49297ZM13.6734 2.47594C13.7203 2.47781 13.7625 2.48438 13.8093 2.49516C14.5921 2.68734 15.089 4.24922 14.5125 4.81406C13.95 5.36719 12.45 4.84219 12.2625 4.07625C12.0984 3.405 12.9703 2.44875 13.6734 2.47594ZM6.34683 6.15937C6.41246 6.15937 6.47339 6.16875 6.53433 6.18281C7.37339 6.375 8.01558 7.79063 7.58902 8.54063C7.23746 9.15469 6.15464 9 5.47964 8.78437C5.06246 8.65312 4.49199 8.34844 4.49761 7.90781C4.50839 7.10156 5.46089 6.17812 6.28589 6.15937H6.34683ZM17.5359 9.41719H17.5921C18.1593 9.42656 18.75 10.1156 18.764 10.6828C18.7781 11.1797 18.2765 11.7562 17.7796 11.8078C17.2406 11.8641 16.5562 11.3625 16.4812 10.8234C16.4015 10.2422 16.95 9.45469 17.5359 9.41719ZM10.9265 14.3719C11.6484 14.3719 12.1453 15.4078 12.1921 16.1297C12.225 16.6875 11.939 17.5219 11.3859 17.6063C10.6312 17.7234 9.80152 16.7812 9.73121 16.0219C9.67027 15.3469 10.2468 14.3719 10.9265 14.3719ZM19.7671 14.4234C19.8234 14.4234 19.8703 14.4281 19.9218 14.4422C20.4703 14.5922 20.7562 15.7031 20.3437 16.0922C19.9453 16.4719 18.8953 16.1344 18.764 15.6C18.6468 15.1219 19.2609 14.4375 19.7671 14.4234ZM7.12964 15.3563C8.02964 15.3328 8.81714 16.7719 8.57339 17.6391C8.39996 18.2531 7.49058 18.4922 6.84839 18.4828C6.42652 18.4781 5.84527 18.2953 5.72339 17.8875C5.44683 16.9641 6.16402 15.3844 7.12964 15.3563ZM14.9203 19.4625C14.9343 19.4625 14.9531 19.4672 14.9671 19.4672C15.4968 19.5187 15.9609 20.2828 15.8484 20.8031C15.7453 21.2766 15.089 21.6797 14.6156 21.5766C14.2031 21.4875 13.875 20.9437 13.9171 20.5219C13.964 20.0437 14.4421 19.4531 14.9203 19.4625Z" fill="#FFFCF1"/>
</svg>
